<?xml version="1.0" encoding="UTF-8"?>
<svg width="172px" height="20px" viewBox="0 0 172 20" version="1.1" xmlns="http://www.w3.org/2000/svg" xmlns:xlink="http://www.w3.org/1999/xlink">
    <!-- Generator: Sketch 47.1 (45422) - http://www.bohemiancoding.com/sketch -->
    <title>Page 1 Copy 5</title>
    <desc>Created with Sketch.</desc>
    <defs>
        <polygon id="path-1" points="0.0381324193 18.3340104 18.5842617 18.3340104 18.5842617 0.492354476 0.0381324193 0.492354476 0.0381324193 18.3340104"></polygon>
        <polygon id="path-3" points="0.27640635 18.3340104 18.6762599 18.3340104 18.6762599 0.38486282 0.27640635 0.38486282 0.27640635 18.3340104"></polygon>
    </defs>
    <g id="校验稿" stroke="none" stroke-width="1" fill="none" fill-rule="evenodd">
        <g id="M-注册登录-找回密码-设置新密码" transform="translate(-102.000000, -118.000000)">
            <g id="Page-1-Copy-5" transform="translate(101.000000, 118.000000)">
                <g id="Group-6" transform="translate(1.746463, 0.542240)">
                    <mask id="mask-2" fill="white">
                        <use xlink:href="#path-1"></use>
                    </mask>
                    <g id="Clip-5"></g>
                    <path d="M12.2195989,4.87874479 C11.950955,5.56155729 11.6696576,6.21666146 11.3747333,6.84207813 C11.6024966,7.78416146 11.8604337,8.65994271 12.1495179,9.47239063 C12.4366554,10.2828594 12.7831671,11.0428594 13.1841863,11.751401 C13.6406862,10.8093177 14.012505,9.78114063 14.3015892,8.66192188 C14.5887267,7.54567188 14.794103,6.28494271 14.9147981,4.87874479 L12.2195989,4.87874479 Z M7.43267602,18.1916094 C8.45177083,17.4306198 9.37255755,16.6458802 10.1979562,15.8403594 C11.0223815,15.0368177 11.7494721,14.143224 12.3802013,13.1615573 C12.0317429,12.3847344 11.7338985,11.5455677 11.4847216,10.6460365 C11.2374913,9.74749479 11.0399018,8.77275521 10.8909796,7.72181771 C10.3819189,8.67676563 9.83197756,9.47436979 9.24212899,10.1146302 C9.20222174,10.1571823 9.15258102,10.1700469 9.09126013,10.1571823 C9.03091258,10.1423385 8.97056504,10.1116615 8.9102175,10.0631719 C8.84986995,10.0156719 8.80314927,9.96223438 8.77005546,9.89989063 C8.7359883,9.83853646 8.73306825,9.77520313 8.75934864,9.70692188 C9.1214339,8.98254688 9.45431874,8.22749479 9.75508311,7.43582813 C10.0568208,6.64416146 10.3244914,5.86041146 10.5600415,5.08358854 C10.7946182,4.30775521 10.9961011,3.56160938 11.1635169,2.84515104 C11.3309327,2.12968229 11.4613612,1.49140104 11.5557759,0.934265625 C11.5820563,0.756140625 11.6355904,0.634421875 11.7163783,0.566140625 C11.7971661,0.496869792 11.9441416,0.477078125 12.1592514,0.503796875 C12.3062269,0.530515625 12.4473622,0.554265625 12.5816842,0.574057292 C12.7160061,0.595828125 12.8561682,0.625515625 13.004117,0.667078125 C13.3116948,0.749213542 13.4197364,0.959994792 13.3253217,1.30041146 C13.2182534,1.73681771 13.1014517,2.17718229 12.9739432,2.62051563 C12.8454614,3.06285938 12.7023793,3.50916146 12.5417769,3.95843229 L17.8105068,3.95843229 C17.9175751,3.95843229 17.9993363,3.99108854 18.051897,4.05046354 C18.1064045,4.11280729 18.1326849,4.18603646 18.1326849,4.26718229 L18.1326849,4.57296354 C18.1326849,4.65509896 18.1025111,4.72733854 18.0431369,4.78770313 C17.981816,4.85004688 17.9049216,4.87874479 17.8105068,4.87874479 L16.7252244,4.87874479 C16.5772756,6.66692188 16.2959782,8.24332813 15.8803588,9.61291146 C15.4647394,10.9854635 14.9147981,12.2135365 14.2305348,13.3060365 C14.7405689,13.9462969 15.3333375,14.5252031 16.0107874,15.0427552 C16.6882372,15.5622865 17.4766487,16.0372865 18.374075,16.4746823 C18.6154652,16.5983802 18.648559,16.7814531 18.4753032,17.0268698 C18.3409812,17.218849 18.1940058,17.4118177 18.0324301,17.6087448 C17.8718277,17.8066615 17.6771582,18.002599 17.4493949,18.1916094 C17.3014461,18.3153073 17.1749109,18.3796302 17.0668694,18.3865573 C16.9588278,18.3924948 16.8313193,18.3558802 16.6843438,18.2737448 C15.2496296,17.278224 14.0962129,16.0917135 13.2250669,14.7152031 C12.5145232,15.5622865 11.7095648,16.311401 10.8111651,16.9665052 C9.9127654,17.6186406 8.91313754,18.2262448 7.81520158,18.786349 C7.74706726,18.8120781 7.67698624,18.8061406 7.60398518,18.7645781 C7.52903742,18.7240052 7.46868988,18.6705677 7.4219692,18.6012969 C7.37524852,18.5340052 7.34799479,18.4587969 7.34215471,18.377651 C7.33436793,18.2955156 7.36551505,18.2331719 7.43267602,18.1916094 L7.43267602,18.1916094 Z M0.632870531,7.43582813 C0.607563497,7.28640104 0.629950489,7.15676563 0.703924897,7.04692188 C0.776925958,6.93707813 0.901514435,6.88364063 1.07574363,6.88364063 L1.27722656,6.88364063 C1.74638005,6.21666146 2.17562629,5.51108854 2.56399193,4.76791146 C2.95333092,4.02374479 3.30178932,3.29145313 3.61034047,2.56905729 L0.572522987,2.56905729 C0.506335359,2.56905729 0.439174383,2.54233854 0.372013407,2.48791146 C0.304852431,2.43249479 0.271758616,2.36520313 0.271758616,2.28306771 L0.271758616,2.01588021 C0.271758616,1.94858854 0.304852431,1.88426563 0.372013407,1.82192188 C0.439174383,1.76254688 0.506335359,1.72989063 0.572522987,1.72989063 L9.5847473,1.72989063 C9.67721531,1.72989063 9.75508311,1.76254688 9.81543065,1.82192188 C9.8757782,1.88426563 9.90595197,1.94858854 9.90595197,2.01588021 L9.90595197,2.28306771 C9.90595197,2.47306771 9.79888374,2.56905729 9.5847473,2.56905729 L5.62224971,2.56905729 C5.19300347,3.26374479 4.71022312,3.99405729 4.17390866,4.75801563 C3.6375942,5.51999479 3.06721258,6.20973438 2.46373714,6.82327604 L7.00926987,6.61843229 C6.70071872,6.01775521 6.30553964,5.34384896 5.82373264,4.59473438 C5.79647891,4.55317188 5.79647891,4.50072396 5.82373264,4.44134896 C5.85001302,4.37801563 5.88700023,4.32457813 5.9337209,4.27707813 C5.98044158,4.22957813 6.03397569,4.19197396 6.09432324,4.16327604 C6.15467078,4.13655729 6.21209828,4.13655729 6.26563239,4.16327604 C7.0160833,4.70853646 7.61274531,5.19244271 8.05561841,5.61598438 C8.49849151,6.03952604 8.84013648,6.44822396 9.08152665,6.84207813 C9.28300958,7.12806771 9.30928996,7.46353646 9.16134115,7.84551563 C9.10780703,7.96723438 9.05135288,8.08697396 8.99100534,8.20176563 C8.93065779,8.31952604 8.84013648,8.43926563 8.71944139,8.56098438 C8.57149257,8.71041146 8.41478363,8.77770313 8.24639452,8.76582813 C8.07897875,8.75197396 7.94173675,8.61442188 7.83466853,8.35811979 L7.37135513,7.35468229 C7.00926987,7.43582813 6.57710359,7.53181771 6.07388294,7.64067188 C5.57163564,7.74952604 5.04505466,7.85936979 4.49608668,7.96723438 C3.945172,8.07608854 3.4059375,8.17999479 2.87643647,8.27598438 C2.34596209,8.36999479 1.87388857,8.45114063 1.45826919,8.52140104 C1.27041313,8.54713021 1.1263577,8.54317188 1.02610291,8.51051563 C0.924874775,8.47686979 0.847980324,8.36999479 0.794446213,8.19384896 L0.632870531,7.43582813 Z M0.0498353909,16.6389531 C0.0225816615,16.4885365 0.0430219586,16.3618698 0.110182935,16.2609323 C0.177343911,16.1580156 0.291225566,16.1006198 0.452801247,16.085776 L4.09312082,15.5543698 L4.09312082,12.017599 L0.834353459,12.017599 C0.754538966,12.017599 0.680564558,11.9898906 0.613403582,11.9364531 C0.546242605,11.8800469 0.513148791,11.8048385 0.513148791,11.7098385 L0.513148791,11.4644219 C0.513148791,11.3822865 0.546242605,11.3159844 0.613403582,11.2595781 C0.680564558,11.2071302 0.754538966,11.1784323 0.834353459,11.1784323 L4.09312082,11.1784323 L4.09312082,9.25666146 C4.09312082,9.06468229 4.14665493,8.93009896 4.2546965,8.84697396 C4.36079138,8.76582813 4.4882999,8.72426563 4.63624871,8.72426563 L5.23972415,8.72426563 C5.38767297,8.72426563 5.51810153,8.76582813 5.63198319,8.84697396 C5.74586484,8.93009896 5.80329234,9.06468229 5.80329234,9.25666146 L5.80329234,11.1784323 L8.98127186,11.1784323 C9.19540831,11.1784323 9.30344988,11.2744219 9.30344988,11.4644219 L9.30344988,11.7098385 C9.30344988,11.8048385 9.27230276,11.8800469 9.21195521,11.9364531 C9.15258102,11.9898906 9.08152665,12.017599 9.00073881,12.017599 L5.80329234,12.017599 L5.80329234,15.2891615 L9.28300958,14.7775469 C9.34919721,14.7775469 9.39981128,14.808224 9.43387844,14.8695781 C9.46697225,14.9299427 9.49033259,15.0021823 9.50395946,15.0843177 C9.51758632,15.1664531 9.51466628,15.2416615 9.49422598,15.3089531 C9.47378569,15.3772344 9.44361191,15.4178073 9.40370467,15.4316615 C9.2158486,15.4999427 8.92384436,15.5979115 8.52866528,15.7285365 C8.13251286,15.8581719 7.67990628,15.9937448 7.17084555,16.1372344 C6.66081147,16.280724 6.11476354,16.4341094 5.5317284,16.5983802 C4.94869325,16.7616615 4.37441824,16.9180156 3.8118234,17.0664531 C3.24922856,17.218849 2.70804736,17.356401 2.19314654,17.4860365 C1.67629903,17.6156719 1.23050588,17.7225469 0.854793756,17.8046823 C0.546242605,17.8581198 0.345733025,17.7492656 0.251318319,17.4771302 L0.0498353909,16.6389531 Z" id="Fill-4" fill="#94856F" mask="url(#mask-2)"></path>
                </g>
                <g id="Group-9" transform="translate(31.920235, 0.542240)">
                    <mask id="mask-4" fill="white">
                        <use xlink:href="#path-3"></use>
                    </mask>
                    <g id="Clip-8"></g>
                    <path d="M1.3350434,3.26394271 C1.3350434,3.19665104 1.36132378,3.13430729 1.41583124,3.07988021 C1.46936535,3.02545313 1.53652633,2.99873438 1.61634082,2.99873438 L6.56483941,2.99873438 C6.53758568,2.97201563 6.49767843,2.90373438 6.44317097,2.79389063 C6.28354199,2.45347396 6.08887249,2.11305729 5.86013583,1.77165104 C5.63237252,1.42925521 5.39876913,1.10170313 5.15737895,0.789984375 C5.08924463,0.722692708 5.09703141,0.629671875 5.1768459,0.513890625 C5.25763374,0.398109375 5.36372862,0.359515625 5.49805057,0.401078125 C5.98180427,0.564359375 6.41689059,0.746442708 6.80622958,0.943369792 C7.19459523,1.14029688 7.48367943,1.33524479 7.67056215,1.52623438 C7.81851096,1.66279688 7.89540541,1.79540104 7.90221885,1.92404688 C7.90903228,2.05269271 7.87204507,2.20805729 7.79223058,2.38420313 C7.72506961,2.49503646 7.65401524,2.59201563 7.58004083,2.68107813 C7.50703977,2.77014063 7.4359854,2.84930729 7.36882443,2.91560938 C7.3415707,2.94529688 7.30166345,2.97201563 7.24910269,2.99873438 L11.2310672,2.99873438 C11.4189233,2.60389063 11.583419,2.23180729 11.7245544,1.88347396 C11.8647164,1.53711979 11.995145,1.16602604 12.1168134,0.769203125 C12.1567207,0.633630208 12.2404286,0.544567708 12.3679371,0.503994792 C12.4954456,0.462432292 12.6317142,0.470348958 12.7796631,0.523786458 C12.9276119,0.564359375 13.0921076,0.614828125 13.2731502,0.678161458 C13.4541929,0.737536458 13.5846214,0.789984375 13.6644359,0.831546875 C13.9875873,0.980973958 14.0401481,1.19373438 13.8260116,1.46488021 C13.6517824,1.69644271 13.4162323,1.95274479 13.1222814,2.23180729 C12.8263837,2.50988021 12.5324328,2.76717188 12.2365352,2.99873438 L17.4059836,2.99873438 C17.4867715,2.99873438 17.5568525,3.02545313 17.6172,3.07988021 C17.6785209,3.13430729 17.7086947,3.19665104 17.7086947,3.26394271 L17.7086947,3.55092188 C17.7086947,3.63206771 17.6785209,3.70034896 17.6172,3.75576563 C17.5568525,3.81019271 17.4867715,3.83790104 17.4059836,3.83790104 L10.4669895,3.83790104 L10.4669895,6.08623438 L16.4813035,6.08623438 C16.561118,6.08623438 16.6321724,6.11493229 16.6925199,6.16836979 C16.7528675,6.22180729 16.7830412,6.28415104 16.7830412,6.35243229 L16.7830412,6.66019271 C16.7830412,6.72748438 16.7528675,6.78883854 16.6925199,6.84326563 C16.6321724,6.89769271 16.561118,6.92342188 16.4813035,6.92342188 L10.4669895,6.92342188 L10.4669895,9.19550521 L18.0902469,9.19550521 C18.1836883,9.19550521 18.2576627,9.22222396 18.3111968,9.27665104 C18.3647309,9.33107813 18.3919846,9.39144271 18.3919846,9.46071354 L18.3919846,9.76649479 C18.3919846,9.83675521 18.3618109,9.89810938 18.3014633,9.95154688 C18.2411158,10.005974 18.1768748,10.0336823 18.1106872,10.0336823 L0.99242509,10.0336823 C0.925264114,10.0336823 0.861996528,10.005974 0.802622332,9.95154688 C0.742274788,9.89810938 0.711127668,9.83675521 0.711127668,9.76649479 L0.711127668,9.46071354 C0.711127668,9.39144271 0.742274788,9.33107813 0.802622332,9.27665104 C0.861996528,9.22222396 0.925264114,9.19550521 0.99242509,9.19550521 L8.6166559,9.19550521 L8.6166559,6.92342188 L2.64224907,6.92342188 C2.454393,6.92342188 2.36095165,6.83534896 2.36095165,6.66019271 L2.36095165,6.35243229 C2.36095165,6.28415104 2.38723203,6.22180729 2.44173949,6.16836979 C2.49430025,6.11493229 2.56243457,6.08623438 2.64224907,6.08623438 L8.6166559,6.08623438 L8.6166559,3.83790104 L1.61634082,3.83790104 C1.42848476,3.83790104 1.3350434,3.74092188 1.3350434,3.55092188 L1.3350434,3.26394271 Z M0.369482703,18.0888906 C1.40220438,17.7494635 2.31325762,17.3912344 3.10458912,17.0151927 C3.89592062,16.6411302 4.58310394,16.2561823 5.16613908,15.860349 C5.75014757,15.4664948 6.238768,15.0577969 6.63492043,14.6332656 C7.03107285,14.2117031 7.35617091,13.7693594 7.61118795,13.3052448 L1.27469586,13.3052448 C1.0868398,13.3052448 0.99242509,13.2171719 0.99242509,13.0400365 L0.99242509,12.7530573 C0.99242509,12.6857656 1.01967882,12.6214427 1.07321293,12.559099 C1.12674704,12.4977448 1.19390802,12.4660781 1.27469586,12.4660781 L7.99274016,12.4660781 C8.073528,12.233526 8.13971563,11.9999844 8.19324974,11.7614948 C8.2477572,11.5230052 8.29447788,11.2736302 8.33535847,11.0143594 C8.36163886,10.8510781 8.42490644,10.725401 8.52613458,10.6363385 C8.62638937,10.547276 8.78407166,10.523526 8.99820811,10.5650885 L9.88395431,10.6877969 C10.0844639,10.7145156 10.2148925,10.7877448 10.27524,10.9025365 C10.3355875,11.0183177 10.3462944,11.1588385 10.3063871,11.3221198 C10.2655065,11.5131094 10.2217059,11.7031094 10.1749852,11.894099 C10.1282645,12.084099 10.0776505,12.2750885 10.0241164,12.4660781 L17.8089495,12.4660781 C17.9014175,12.4660781 17.9753919,12.4977448 18.0298994,12.559099 C18.0824601,12.6214427 18.1106872,12.6857656 18.1106872,12.7530573 L18.1106872,13.0400365 C18.1106872,13.1063385 18.0795401,13.1696719 18.0191925,13.2231094 C17.958845,13.278526 17.8955774,13.3052448 17.8284164,13.3052448 L10.9293295,13.3052448 C11.4121099,13.7555052 11.9182505,14.150349 12.4477516,14.4917552 C12.9772526,14.8311823 13.5437408,15.1330052 14.1481896,15.3912865 C14.7506917,15.6515469 15.4077013,15.8702448 16.1182449,16.0562865 C16.8297619,16.2393594 17.6074666,16.3986823 18.4523322,16.5362344 C18.5856808,16.5629531 18.6606285,16.6312344 18.6732821,16.7410781 C18.6869089,16.8499323 18.6538151,16.9667031 18.5730273,17.0884219 C18.4786126,17.2388385 18.3715443,17.3981615 18.2508492,17.5693594 C18.1301542,17.7395677 17.9822053,17.9196719 17.8089495,18.1106615 C17.6610007,18.2887865 17.5169452,18.389724 17.3758099,18.4174323 C17.2346745,18.4451406 17.0312449,18.4243594 16.762601,18.3560781 C16.1990328,18.2195156 15.6218377,18.033474 15.0329625,17.7939948 C14.4421406,17.5545156 13.8659189,17.2408177 13.303324,16.8519115 C12.7397558,16.4639948 12.1927345,15.9820677 11.6632335,15.4021719 C11.1337325,14.8232656 10.6412187,14.1226406 10.1847187,13.3052448 L9.70291168,13.3052448 C9.44789464,13.8900885 9.10527633,14.4501927 8.67700344,14.9825885 C8.2477572,15.5149844 7.68126897,16.0087865 6.97656539,16.4639948 C6.27283517,16.9211823 5.39876913,17.3437344 4.35242059,17.7326406 C3.30607205,18.1215469 2.04558706,18.4639427 0.570965631,18.764776 C0.503804655,18.7796198 0.446377154,18.7548802 0.399656475,18.6925365 C0.352935796,18.6311823 0.318868634,18.5609219 0.299401685,18.479776 C0.278961388,18.3976406 0.272147955,18.3174844 0.278961388,18.2452448 C0.28577482,18.1700365 0.315948592,18.1175885 0.369482703,18.0888906 L0.369482703,18.0888906 Z" id="Fill-7" fill="#94856F" mask="url(#mask-4)"></path>
                </g>
                <path d="M72.6587207,17.3641667 L77.928424,17.3641667 L77.928424,15.1148437 L72.6587207,15.1148437 L72.6587207,17.3641667 Z M72.6587207,14.3390104 L77.928424,14.3390104 L77.928424,12.0679167 L72.6587207,12.0679167 L72.6587207,14.3390104 Z M75.13297,3.27546875 C74.6647899,3.32989583 74.1975831,3.37046875 73.7352431,3.3971875 C73.2719297,3.42489583 72.8076429,3.45161458 72.3365427,3.47833333 L72.3365427,5.44166667 L75.4551481,5.44166667 C75.4288677,5.3328125 75.4055073,5.21802083 75.385067,5.09432292 C75.3656001,4.97260417 75.3422397,4.84296875 75.314986,4.70640625 C75.2341982,4.28286458 75.1728773,3.80588542 75.13297,3.27546875 L75.13297,3.27546875 Z M70.9105887,11.3108854 C70.9105887,11.1614583 70.959256,11.0377604 71.0595108,10.94375 C71.160739,10.84875 71.2717006,10.7992708 71.3923957,10.7992708 L72.1759404,10.7992708 C72.2976088,10.7992708 72.4085704,10.84875 72.5088252,10.94375 C72.60908,11.0377604 72.6587207,11.1614583 72.6587207,11.3108854 L77.9293973,11.3108854 C77.9293973,11.1614583 77.976118,11.0377604 78.0705327,10.94375 C78.1639741,10.84875 78.2778557,10.7992708 78.413151,10.7992708 L79.1966958,10.7992708 C79.3173909,10.7992708 79.4283525,10.84875 79.5286073,10.94375 C79.6298354,11.0377604 79.6785028,11.1614583 79.6785028,11.3108854 L79.6785028,18.7347396 C79.6785028,18.8980208 79.6327554,19.0236979 79.5393141,19.1127604 C79.4448994,19.2018229 79.3300444,19.2463542 79.1966958,19.2463542 L78.413151,19.2463542 C78.2914826,19.2463542 78.1814943,19.2018229 78.0802662,19.1127604 C77.9800114,19.0236979 77.9293973,18.8980208 77.9293973,18.7347396 L77.9293973,18.1211979 L72.6587207,18.1211979 L72.6587207,18.6941667 C72.6587207,18.8574479 72.60908,18.983125 72.5088252,19.0711979 C72.4085704,19.1602604 72.2976088,19.2057812 72.1759404,19.2057812 L71.3923957,19.2057812 C71.2717006,19.2057812 71.160739,19.1602604 71.0595108,19.0711979 C70.959256,18.983125 70.9105887,18.8574479 70.9105887,18.6941667 L70.9105887,11.3108854 Z M70.6487582,2.60057292 C70.6487582,2.43630208 70.6983989,2.31161458 70.7996271,2.2215625 C70.8998818,2.13348958 71.0108435,2.08895833 71.1315385,2.08895833 L71.8547357,2.08895833 C71.9764042,2.08895833 72.0873658,2.13348958 72.1866472,2.2215625 C72.2878754,2.31161458 72.3365427,2.43630208 72.3365427,2.60057292 L72.3365427,2.78364583 C72.8884307,2.68864583 73.4442122,2.58375 74.0077803,2.46697917 C74.5694018,2.35317708 75.1125297,2.22947917 75.637164,2.09885417 C76.1598516,1.97020833 76.645552,1.83364583 77.0952386,1.68916667 C77.5439517,1.54666667 77.9293973,1.40713542 78.2515754,1.27057292 C78.5192459,1.16171875 78.7674495,1.1884375 78.9961862,1.35270833 C79.1032544,1.44770833 79.2268695,1.5684375 79.3680049,1.70994792 C79.5091403,1.8534375 79.6123151,1.9721875 79.6785028,2.06817708 C79.7865443,2.20473958 79.8167181,2.33041667 79.7699974,2.44619792 C79.7223034,2.56296875 79.625942,2.64114583 79.4770198,2.68369792 C79.2239495,2.75 78.8550508,2.81828125 78.3722704,2.88557292 C77.8894901,2.95484375 77.3327353,3.03005208 76.7029795,3.11119792 C76.7428868,3.57432292 76.8032343,3.99786458 76.8840222,4.37885417 C76.9103025,4.56984375 76.9443697,4.75390625 76.9842769,4.93104167 C77.0241842,5.10916667 77.0640914,5.279375 77.104972,5.44166667 L80.6245965,5.44166667 C80.8523598,5.44166667 80.9672148,5.53072917 80.9672148,5.70786458 L80.9672148,5.9325 C80.9672148,6.01463542 80.9331477,6.08291667 80.8659867,6.13734375 C80.7997991,6.19177083 80.7258247,6.21947917 80.6450368,6.21947917 L77.3852961,6.21947917 C77.6811937,6.941875 78.11336,7.52177083 78.6827683,7.95916667 C79.2541233,8.39458333 80.015281,8.78447917 80.9672148,9.12291667 C81.1803779,9.21890625 81.2212585,9.37625 81.0879099,9.59395833 C81.0207489,9.71567708 80.9331477,9.8690625 80.8260794,10.053125 C80.7190112,10.2381771 80.5905294,10.4054167 80.4435539,10.5548437 C80.2965784,10.7319792 80.0950955,10.7666146 79.8400784,10.6577604 C78.8063834,10.3025 77.9430242,9.78791667 77.2451341,9.11401042 C76.5482173,8.438125 76.0187162,7.47427083 75.656631,6.21947917 L72.3365427,6.21947917 L72.3365427,8.57072917 L75.314986,7.81369792 C75.3675468,7.80083333 75.4210809,7.81765625 75.4765617,7.86614583 C75.5291225,7.91364583 75.5700031,7.9690625 75.5962834,8.02942708 C75.6225638,8.09078125 75.637164,8.15510417 75.637164,8.224375 C75.637164,8.29265625 75.6099103,8.34609375 75.5563762,8.38765625 C75.3422397,8.52421875 75.0521822,8.69145833 74.6910703,8.88838542 C74.328985,9.08630208 73.939646,9.29114583 73.525,9.50192708 C73.1084073,9.71369792 72.6869478,9.92348958 72.2567282,10.1352604 C71.827482,10.3470312 71.4323029,10.5340625 71.071191,10.6993229 C70.749013,10.8348958 70.5202763,10.7596875 70.3869277,10.4736979 C70.3333936,10.3638542 70.2769395,10.2243229 70.2156186,10.053125 C70.155271,9.88390625 70.104657,9.73645833 70.0637764,9.61375 C70.0238691,9.49104167 70.0316559,9.37229167 70.0842167,9.25651042 C70.1387241,9.14072917 70.2389789,9.06848958 70.3869277,9.04177083 L70.6487582,8.98041667 L70.6487582,2.60057292 Z M66.4244301,12.8447396 C66.8789834,11.7561979 67.2021348,10.6448958 67.3890175,9.51083333 C67.5778469,8.38072917 67.7248224,7.16848958 67.8318906,5.87114583 L66.1032255,5.87114583 C65.9017425,6.85380208 65.6652191,7.8325 65.3985219,8.80723958 C65.129878,9.78197917 64.8281403,10.6993229 64.4933087,11.5563021 C65.2165059,12.0342708 65.8618353,12.46375 66.4244301,12.8447396 L66.4244301,12.8447396 Z M62.9846201,5.29916667 C62.9846201,5.22989583 63.0109005,5.16557292 63.065408,5.10520833 C63.1189421,5.04385417 63.1861031,5.01317708 63.2668909,5.01317708 L64.6947917,5.01317708 C64.7755795,4.33234375 64.8456605,3.69505208 64.9060081,3.10130208 C64.9663556,2.50854167 65.0101562,1.99296875 65.0354633,1.5565625 C65.0500635,1.37942708 65.0967842,1.24979167 65.1765987,1.16864583 C65.2573865,1.08651042 65.3917085,1.05979167 65.5795645,1.08651042 C65.7810475,1.11520833 65.930943,1.13401042 66.0311978,1.14885417 C66.1314525,1.16171875 66.2696679,1.18151042 66.4438971,1.20921875 C66.7534216,1.2775 66.8789834,1.47541667 66.8264226,1.80197917 C66.7582883,2.25223958 66.6784738,2.75 66.5860058,3.29526042 C66.4915911,3.84052083 66.390363,4.41447917 66.2832948,5.01317708 L67.8727712,5.01317708 L67.9126784,4.64505208 C67.9389588,4.30463542 68.1073479,4.14135417 68.4158991,4.15421875 C68.5628745,4.16807292 68.7166635,4.18192708 68.8782391,4.19479167 C69.0398148,4.20963542 69.1721901,4.2284375 69.281205,4.25614583 C69.4418073,4.29770833 69.5430355,4.365 69.5829427,4.46098958 C69.6218766,4.55598958 69.6355035,4.69947917 69.6218766,4.89145833 C69.5547156,5.72171875 69.4817146,6.52921875 69.4009267,7.31395833 C69.3211122,8.09869792 69.2072306,8.85770833 69.0592818,9.59395833 C68.9103596,10.3302083 68.7263969,11.0496354 68.505447,11.7502604 C68.2854705,12.4538542 68.0129332,13.1317187 67.6907552,13.7858333 C68.1336283,14.1272396 68.505447,14.4340104 68.8071848,14.7051562 C69.1098958,14.9782812 69.3532327,15.2177604 69.5430355,15.4226042 C69.7299182,15.6264583 69.8369864,15.8134896 69.8632668,15.9836979 C69.8905205,16.1548958 69.8700802,16.370625 69.8019459,16.6279167 C69.7766389,16.7644792 69.7328382,16.8990625 69.6724907,17.0277083 C69.6121431,17.1573437 69.5488755,17.2622396 69.4817146,17.344375 C69.3327924,17.5610937 69.1634299,17.6788542 68.9677871,17.6927083 C68.774091,17.7055729 68.6027818,17.5828646 68.4558063,17.3235937 C68.2144162,16.9693229 67.9662125,16.6190104 67.7111955,16.2706771 C67.4571518,15.9223437 67.1816945,15.5720312 66.8877435,15.2177604 C66.4166434,15.9272917 65.8676754,16.6110937 65.2369462,17.2721354 C64.6071904,17.9341667 63.8567395,18.5843229 62.9846201,19.2255729 C62.9301127,19.2661458 62.8707385,19.2730729 62.8035775,19.2463542 C62.7364165,19.2196354 62.6799624,19.1751042 62.6322684,19.1127604 C62.5855477,19.0523958 62.5524539,18.983125 62.5320136,18.9079167 C62.5115733,18.8336979 62.5213067,18.7763021 62.561214,18.7347396 C63.3272385,17.890625 63.9735412,17.0851042 64.5030422,16.3221354 C65.0335166,15.5581771 65.4851498,14.8080729 65.8618353,14.0728125 C65.5523108,13.758125 65.2272127,13.4355208 64.8855678,13.1000521 C64.5439228,12.7665625 64.1779442,12.41625 63.7895785,12.048125 C63.6688834,11.9392708 63.5939357,11.8225 63.5676553,11.7007812 C63.5413749,11.5770833 63.5540284,11.4128125 63.6085359,11.2099479 C63.7963919,10.4736979 63.9706211,9.63453125 64.1312235,8.69442708 C64.2918258,7.75432292 64.4397746,6.81322917 64.5740966,5.87114583 L63.2668909,5.87114583 C63.0790349,5.87114583 62.9846201,5.77713542 62.9846201,5.58515625 L62.9846201,5.29916667 Z" id="Fill-10" fill="#94856F"></path>
                <path d="M99.694323,18.6943646 C100.913927,17.7938437 101.979743,16.9319167 102.892743,16.1066042 C103.802823,15.2832708 104.601941,14.4480625 105.285231,13.6019687 C104.802451,12.4975937 104.453992,11.2813958 104.239856,9.95139583 C104.024746,8.62238542 103.890424,7.11228125 103.83689,5.42207292 L93.8805185,5.42207292 C93.6654087,5.42207292 93.5583405,5.32113542 93.5583405,5.11629167 L93.5583405,4.8293125 C93.5583405,4.74717708 93.5885143,4.6749375 93.6488618,4.61358333 C93.7092093,4.55321875 93.7870771,4.52254167 93.8805185,4.52254167 L103.81645,4.52254167 L103.81645,4.11285417 L103.776542,1.61811458 C103.776542,1.48155208 103.823263,1.36676042 103.916704,1.27077083 C104.011119,1.17577083 104.119161,1.12134375 104.239856,1.10748958 L105.104188,1.08670833 C105.237537,1.08670833 105.345578,1.13420833 105.426366,1.23019792 C105.506181,1.32519792 105.553875,1.44889583 105.567502,1.59733333 L105.586969,4.277125 L105.586969,4.52254167 L108.262701,4.52254167 C108.209167,4.49483333 108.158553,4.45722917 108.109885,4.40775 C108.064138,4.36321875 108.028124,4.29790625 108.00087,4.21577083 C107.892829,4.01092708 107.796467,3.8199375 107.707893,3.6418125 C107.620292,3.46665625 107.524903,3.2915 107.417835,3.12129167 C107.309794,2.95009375 107.192992,2.77295833 107.06451,2.58988542 C106.937975,2.40582292 106.788079,2.19801042 106.612877,1.96545833 C106.545716,1.8843125 106.559343,1.78139583 106.651811,1.65967708 C106.746225,1.53696875 106.841614,1.48155208 106.933108,1.49639583 C107.444116,1.68639583 107.886989,1.90113542 108.262701,2.13863542 C108.638413,2.37811458 108.918737,2.59285417 109.107566,2.78384375 C109.360637,3.03025 109.435585,3.33504167 109.32657,3.70514583 C109.301263,3.79915625 109.253569,3.90603125 109.187381,4.0218125 C109.12022,4.13759375 109.039432,4.25040625 108.945991,4.35926042 C108.906084,4.4136875 108.832109,4.46811458 108.724068,4.52254167 L111.119476,4.52254167 C111.225571,4.52254167 111.306358,4.55321875 111.359893,4.61358333 C111.413427,4.6749375 111.44068,4.74717708 111.44068,4.8293125 L111.44068,5.11629167 C111.44068,5.32113542 111.332639,5.42207292 111.119476,5.42207292 L105.606436,5.42207292 C105.646343,6.74514583 105.733944,7.93066667 105.868266,8.98061458 C106.002588,10.0305625 106.224511,10.9835312 106.533062,11.8434792 C106.961335,11.1478021 107.340941,10.4273854 107.669932,9.68519792 C107.996004,8.94301042 108.288981,8.148375 108.543998,7.30327083 C108.584879,7.139 108.667613,7.03410417 108.795122,6.98660417 C108.92263,6.93811458 109.058899,6.94207292 109.207821,6.99748958 C109.35577,7.03608333 109.508586,7.09248958 109.669188,7.16077083 C109.830764,7.2280625 109.952432,7.28941667 110.032247,7.34384375 C110.180195,7.41311458 110.270717,7.50514583 110.303811,7.62092708 C110.337878,7.73670833 110.333984,7.84853125 110.294077,7.958375 C109.958272,8.89946875 109.56212,9.83957292 109.107566,10.7806667 C108.651067,11.7207708 108.073871,12.6470208 107.376955,13.5613958 C107.818854,14.2847812 108.386316,14.9517604 109.076419,15.5653021 C109.767496,16.1788437 110.616255,16.7854583 111.621723,17.3851458 C111.863113,17.5207187 111.90302,17.7186354 111.742418,17.9788958 C111.675257,18.0867604 111.574029,18.2361875 111.44068,18.4271771 C111.306358,18.6191562 111.15841,18.8101458 110.996834,19.0011354 C110.877112,19.1515521 110.756417,19.2356667 110.635722,19.2564479 C110.515027,19.2762396 110.380705,19.2326979 110.23373,19.1238437 C109.294449,18.5093125 108.486571,17.8759792 107.809121,17.2218646 C107.132644,16.56775 106.552529,15.8592083 106.069749,15.0942604 C105.304698,15.8710833 104.429658,16.6122812 103.445604,17.3129062 C102.45863,18.0145208 101.314947,18.6805104 100.015528,19.3079062 C99.9473933,19.3336354 99.8812057,19.3276979 99.8140447,19.2881146 C99.7478571,19.2465521 99.694323,19.1871771 99.6534424,19.1129583 C99.6125618,19.03775 99.5930949,18.9605625 99.5930949,18.8784271 C99.5930949,18.7962917 99.627162,18.7339479 99.694323,18.6943646 M93.5583405,18.1401979 C93.9204257,17.5286354 94.2318969,16.9526979 94.4937274,16.413375 C94.7565312,15.8760312 94.9794278,15.3406667 95.1682572,14.8082708 C95.3551399,14.2778542 95.5060088,13.7316042 95.6198904,13.1724896 C95.7337721,12.613375 95.8184533,12.0146771 95.8719874,11.3734271 L94.0216539,11.3734271 C93.940866,11.3734271 93.8746784,11.34275 93.8211443,11.2813958 C93.7666368,11.2200417 93.7393831,11.1557187 93.7393831,11.0864479 L93.7393831,10.7984792 C93.7393831,10.7331667 93.7666368,10.6678542 93.8211443,10.6065 C93.8746784,10.5441562 93.940866,10.5144687 94.0216539,10.5144687 L95.9118947,10.5144687 C95.9255216,10.309625 95.935255,10.0948854 95.9430418,9.86926042 C95.9479085,9.644625 95.9527753,9.41702083 95.9527753,9.18446875 L95.9527753,7.09941667 C95.9391484,6.949 95.9790557,6.82629167 96.0734704,6.73129167 C96.1659384,6.63530208 96.2807934,6.58780208 96.414142,6.58780208 L97.1801665,6.58780208 C97.3261686,6.58780208 97.4429703,6.63827083 97.5315449,6.7411875 C97.6181728,6.842125 97.6629468,6.96285417 97.6629468,7.09941667 L97.6425065,9.10233333 L97.6016259,10.5144687 L99.8549253,10.5144687 L99.8549253,7.12019792 C99.8549253,6.96978125 99.8977526,6.8480625 99.9853539,6.75207292 C100.072955,6.65608333 100.182943,6.60858333 100.317265,6.60858333 L101.000555,6.60858333 C101.12125,6.60858333 101.229292,6.65608333 101.322733,6.75207292 C101.417148,6.8480625 101.462895,6.96978125 101.462895,7.12019792 L101.462895,10.5144687 L103.113693,10.5144687 C103.193507,10.5144687 103.263588,10.5441562 103.323936,10.6065 C103.38331,10.6678542 103.414457,10.7331667 103.414457,10.7984792 L103.414457,11.0864479 C103.414457,11.1557187 103.38331,11.2200417 103.323936,11.2813958 C103.263588,11.34275 103.193507,11.3734271 103.113693,11.3734271 L101.462895,11.3734271 L101.462895,16.5054062 C101.462895,16.6548333 101.420068,16.7775417 101.332467,16.8735312 C101.244866,16.9695208 101.135851,17.0160312 101.000555,17.0160312 L100.317265,17.0160312 C100.19657,17.0160312 100.089502,16.9695208 99.9950874,16.8735312 C99.9006727,16.7775417 99.8549253,16.6548333 99.8549253,16.5054062 L99.8549253,11.3734271 L97.5218114,11.3734271 C97.4410236,12.1918125 97.3203285,12.9260833 97.1597262,13.5821771 C96.9971771,14.2362917 96.7762273,14.8419167 96.4949298,15.4010312 C96.2136324,15.9601458 95.8680941,16.4984792 95.4592881,17.0160312 C95.0495088,17.5345729 94.5638084,18.0659792 94.0012136,18.6122292 C93.9486528,18.6528021 93.8873319,18.6636875 93.8211443,18.6429062 C93.75301,18.6231146 93.6926624,18.5845208 93.6391283,18.5310833 C93.5855942,18.4746771 93.548607,18.4143125 93.5281667,18.3450417 C93.5077264,18.27775 93.5184332,18.2104583 93.5583405,18.1401979" id="Fill-12" fill="#94856F"></path>
                <path d="M136.059656,13.4186979 L138.41321,13.4186979 L138.41321,9.47125 L136.059656,9.47125 L136.059656,13.4186979 Z M136.059656,8.63307292 L138.41321,8.63307292 L138.41321,4.7271875 L136.059656,4.7271875 L136.059656,8.63307292 Z M134.811824,15.6264583 C134.771917,15.5997396 134.75245,15.5482813 134.75245,15.4720833 C134.75245,15.3988542 134.768997,15.3236458 134.803064,15.2484375 C134.835184,15.1752083 134.878985,15.1089063 134.932519,15.0544792 C134.987027,15.0000521 135.054188,14.9782813 135.134975,14.9921354 C136.422714,15.3473958 137.558611,15.7155208 138.542665,16.0975 C139.529639,16.4775 140.248943,16.8327604 140.706416,17.1603125 C140.893299,17.2691667 141.017888,17.391875 141.077262,17.5284375 C141.138583,17.6640104 141.15513,17.8421354 141.128849,18.0588542 C141.115222,18.1964063 141.091862,18.3329688 141.057795,18.4685417 C141.024701,18.6051042 140.9809,18.7347396 140.929313,18.8574479 C140.819325,19.1028646 140.651909,19.2414063 140.425119,19.2770313 C140.196382,19.3106771 139.961806,19.2196354 139.720415,18.9999479 C139.024472,18.3735417 138.289595,17.7976042 137.51773,17.2721354 C136.745865,16.7476563 135.844546,16.1994271 134.811824,15.6264583 L134.811824,15.6264583 Z M132.01637,13.4186979 L134.368951,13.4186979 L134.368951,9.47125 L132.01637,9.47125 L132.01637,13.4186979 Z M132.01637,8.63307292 L134.368951,8.63307292 L134.368951,4.7271875 L132.01637,4.7271875 L132.01637,8.63307292 Z M127.974058,13.4186979 L130.326639,13.4186979 L130.326639,9.47125 L127.974058,9.47125 L127.974058,13.4186979 Z M127.974058,8.63307292 L130.326639,8.63307292 L130.326639,4.7271875 L127.974058,4.7271875 L127.974058,8.63307292 Z M138.414183,3.74453125 C138.414183,3.59510417 138.45993,3.47239583 138.554345,3.37640625 C138.646813,3.28140625 138.761668,3.23390625 138.896963,3.23390625 L139.699975,3.23390625 C139.819697,3.23390625 139.931632,3.28140625 140.031887,3.37640625 C140.133115,3.47239583 140.183729,3.59510417 140.183729,3.74453125 L140.183729,13.4186979 L141.852046,13.4186979 C141.932834,13.4186979 142.003889,13.449375 142.064236,13.5107292 C142.12361,13.5710938 142.153784,13.6364063 142.153784,13.7046875 L142.153784,14.0114583 C142.153784,14.0797396 142.12361,14.1410938 142.064236,14.1955208 C142.003889,14.2499479 141.932834,14.2776563 141.852046,14.2776563 L124.474874,14.2776563 C124.286044,14.2776563 124.192603,14.1885938 124.192603,14.0114583 L124.192603,13.7046875 C124.192603,13.6364063 124.219857,13.5710938 124.273391,13.5107292 C124.326925,13.449375 124.394086,13.4186979 124.474874,13.4186979 L126.24442,13.4186979 L126.24442,3.78609375 C126.24442,3.63567708 126.29114,3.51395833 126.385555,3.41796875 C126.47705,3.32296875 126.592878,3.27546875 126.725253,3.27546875 L127.490304,3.27546875 C127.611973,3.27546875 127.722934,3.32296875 127.822216,3.41796875 C127.924417,3.51395833 127.974058,3.63567708 127.974058,3.78609375 L127.974058,3.88802083 L130.327612,3.88802083 L130.327612,1.65947917 C130.327612,1.51005208 130.372386,1.38734375 130.467774,1.29135417 C130.562189,1.19734375 130.675097,1.14885417 130.810393,1.14885417 L131.535536,1.14885417 C131.655258,1.14885417 131.76622,1.19734375 131.865501,1.29135417 C131.967703,1.38734375 132.01637,1.51005208 132.01637,1.65947917 L132.01637,3.88802083 L134.370898,3.88802083 L134.370898,1.6396875 C134.370898,1.48828125 134.416645,1.3665625 134.510086,1.27057292 C134.604501,1.17557292 134.718383,1.12807292 134.852705,1.12807292 L135.576875,1.12807292 C135.69757,1.12807292 135.808532,1.17557292 135.907813,1.27057292 C136.009041,1.3665625 136.059656,1.48828125 136.059656,1.6396875 L136.059656,3.88802083 L138.414183,3.88802083 L138.414183,3.74453125 Z M124.051468,18.6733854 C125.204884,18.128125 126.26486,17.5521875 127.228474,16.9455729 C128.195981,16.3389583 129.011646,15.6947396 129.683256,15.0139063 C129.911993,14.7803646 130.20789,14.7675 130.569002,14.9723438 C130.715005,15.0544792 130.85906,15.1534375 131.001169,15.2692188 C131.140357,15.385 131.245479,15.4760417 131.313613,15.5463021 C131.445988,15.6541667 131.514123,15.7838021 131.514123,15.9332292 C131.514123,16.0846354 131.441122,16.2132813 131.293173,16.3221354 C131.09169,16.4715625 130.773405,16.6754167 130.337346,16.9346875 C129.901286,17.1949479 129.377625,17.4670833 128.76831,17.7530729 C128.158021,18.0390625 127.475704,18.3191146 126.716493,18.5922396 C125.959229,18.864375 125.15135,19.1028646 124.291884,19.3067188 C124.225697,19.3215625 124.165349,19.3017708 124.112789,19.2463542 C124.058281,19.1919271 124.018374,19.1236458 123.992093,19.0425 C123.963866,18.9603646 123.955106,18.8861458 123.96192,18.816875 C123.966786,18.7476042 123.997934,18.7010938 124.051468,18.6733854 L124.051468,18.6733854 Z" id="Fill-13" fill="#94856F"></path>
                <path d="M160.960512,7.22143229 C160.960512,7.05815104 161.014046,6.92455729 161.121114,6.82361979 C161.228183,6.71971354 161.376131,6.66924479 161.563988,6.66924479 L162.228784,6.66924479 C162.374786,6.65638021 162.502294,6.69299479 162.610336,6.78205729 C162.717404,6.87111979 162.777752,6.99679688 162.790405,7.16007813 L162.790405,7.22143229 L168.121429,7.22143229 C168.121429,7.03044271 168.16523,6.88299479 168.252831,6.78205729 C168.340433,6.68013021 168.497142,6.63559896 168.725878,6.64945313 L169.32838,6.66924479 C169.557117,6.66924479 169.703119,6.72763021 169.771253,6.84242188 C169.838414,6.95820313 169.871508,7.09971354 169.871508,7.26299479 C169.871508,7.48070313 169.868588,7.78351563 169.861775,8.17242188 C169.854961,8.56132813 169.848148,8.97596354 169.842308,9.42028646 C169.834521,9.86361979 169.821868,10.2980469 169.801427,10.7295052 C169.780987,11.1589844 169.76444,11.516224 169.750813,11.8032031 C169.698252,12.5394531 169.570744,13.0708594 169.369261,13.3964323 C169.167778,13.7239844 168.853387,13.969401 168.424141,14.1336719 C168.235311,14.2029427 168.014361,14.2563802 167.760318,14.2969531 C167.505301,14.3385156 167.24347,14.366224 166.974826,14.378099 C166.774317,14.4077865 166.615661,14.396901 166.502753,14.349401 C166.389844,14.2999219 166.284723,14.195026 166.191281,14.0317448 C166.017052,13.7180469 165.875917,13.4310677 165.768849,13.1727865 C165.66178,12.9263802 165.749382,12.7838802 166.030679,12.7433073 L167.176309,12.620599 C167.45858,12.5533073 167.659089,12.4434635 167.779785,12.2940365 C167.90048,12.1436198 167.974454,11.8853385 168.000734,11.516224 C168.027988,11.0382552 168.047455,10.4910156 168.061082,9.86955729 C168.073735,9.25007813 168.087362,8.64049479 168.100989,8.03981771 L162.790405,8.03981771 L162.790405,14.8907031 C162.790405,15.3261198 162.810846,15.6774219 162.851726,15.9426302 C162.892607,16.2098177 162.979235,16.4136719 163.112583,16.5571615 C163.246905,16.700651 163.442548,16.8025781 163.697565,16.8649219 C163.951609,16.9252865 164.299094,16.9628906 164.74294,16.9757552 C165.14396,17.0034635 165.6647,17.014349 166.30127,17.0074219 C166.936866,17.0004948 167.598742,16.9935677 168.282032,16.985651 C168.966295,16.9797135 169.619411,16.966849 170.2443,16.9460677 C170.866269,16.9252865 171.358783,16.907474 171.721842,16.8936198 C171.990486,16.8817448 172.071274,17.0153385 171.963232,17.3033073 C171.923325,17.4388802 171.872711,17.5902865 171.813336,17.7535677 C171.752016,17.9178385 171.675121,18.0801302 171.582653,18.244401 C171.460985,18.4898177 171.240035,18.6194531 170.917857,18.6313281 C170.796188,18.6471615 170.575238,18.6570573 170.254034,18.6639844 C169.931856,18.6699219 169.557117,18.6758594 169.127871,18.6847656 C168.697651,18.6916927 168.231418,18.6986198 167.72917,18.7045573 C167.22595,18.7104948 166.740249,18.7134635 166.271096,18.7134635 C165.801942,18.7134635 165.365883,18.7104948 164.962917,18.7045573 C164.561898,18.6986198 164.241666,18.6867448 163.99833,18.6728906 C163.474669,18.6471615 163.025955,18.5778906 162.650243,18.4680469 C162.275505,18.3601823 161.96014,18.1790885 161.705123,17.9257552 C161.450106,17.674401 161.263223,17.3438802 161.141555,16.9341927 C161.02086,16.5254948 160.960512,16.0158594 160.960512,15.4023177 L160.960512,7.22143229 Z M156.092801,5.79049479 C156.039267,5.72221354 156.062628,5.62028646 156.162882,5.48273438 C156.26411,5.34716146 156.368259,5.30065104 156.475327,5.34023438 C157.011641,5.53122396 157.498315,5.74002604 157.934375,5.96367188 C158.368488,6.18830729 158.694559,6.41789063 158.909669,6.64945313 C159.150086,6.86815104 159.211407,7.17393229 159.089738,7.56877604 C159.036204,7.71919271 158.977803,7.85575521 158.909669,7.97846354 C158.841535,8.10216146 158.754907,8.21794271 158.647838,8.32580729 C158.51449,8.47721354 158.359728,8.54549479 158.185498,8.53065104 C158.011269,8.51778646 157.86332,8.39507813 157.742625,8.16153646 C157.473981,7.69841146 157.219938,7.29169271 156.977574,6.94632813 C156.737157,6.59898438 156.442233,6.21205729 156.092801,5.79049479 L156.092801,5.79049479 Z M155.208028,14.6047135 C155.140867,14.4533073 155.181748,14.3385156 155.329697,14.2563802 C155.462072,14.147526 155.603208,14.1336719 155.750183,14.2148177 L156.374099,14.8907031 L159.352542,9.26591146 C159.377849,9.21247396 159.429436,9.18377604 159.503411,9.18377604 C159.575439,9.18377604 159.65428,9.19861979 159.734094,9.22533854 C159.814882,9.25403646 159.884963,9.29460938 159.945311,9.34705729 C160.004685,9.40346354 160.029019,9.45888021 160.016365,9.51132813 L157.521675,16.1989323 C157.749439,16.498776 157.944108,16.7709115 158.104711,17.0153385 C158.318847,17.3973177 158.351941,17.7595052 158.205939,18.101901 C158.137804,18.2226302 158.05799,18.3572135 157.963575,18.498724 C157.870134,18.6432031 157.749439,18.7629427 157.60149,18.8579427 C157.412661,19.0063802 157.229671,19.068724 157.048629,19.0410156 C156.867586,19.0142969 156.737157,18.8648698 156.657343,18.5907552 C156.509394,18.0197656 156.310831,17.3973177 156.062628,16.729349 C155.815397,16.0633594 155.529233,15.3548177 155.208028,14.6047135 L155.208028,14.6047135 Z M154.363163,9.28669271 C154.296002,9.20554688 154.310602,9.09966146 154.40307,8.97101563 C154.497485,8.84039063 154.59774,8.79091146 154.705781,8.81664063 C155.214842,8.99377604 155.696649,9.19565104 156.154122,9.42028646 C156.608675,9.64492188 156.95032,9.87351563 157.18003,10.1050781 C157.40682,10.3099219 157.453541,10.6097656 157.320192,11.0036198 C157.239405,11.290599 157.098269,11.5429427 156.898733,11.7616406 C156.749811,11.8982031 156.592129,11.9664844 156.424713,11.9664844 C156.257297,11.9664844 156.113242,11.8427865 155.992547,11.5983594 C155.723903,11.148099 155.473752,10.7552344 155.239176,10.4217448 C155.004599,10.0872656 154.711621,9.71023438 154.363163,9.28669271 L154.363163,9.28669271 Z M154.283348,3.27596354 C154.283348,3.20570313 154.310602,3.14632813 154.363163,3.09190104 C154.41767,3.03549479 154.484831,3.00877604 154.564646,3.00877604 L159.230874,3.00877604 L159.230874,1.55705729 C159.230874,1.40763021 159.282461,1.28096354 159.381742,1.17903646 C159.482971,1.07611979 159.591986,1.02466146 159.714627,1.02466146 L160.518612,1.02466146 C160.638334,1.02466146 160.749296,1.07611979 160.850524,1.17903646 C160.950779,1.28096354 161.001393,1.40763021 161.001393,1.55705729 L161.001393,3.00877604 L165.14396,3.00877604 L165.14396,1.55705729 C165.14396,1.40763021 165.194574,1.28096354 165.295802,1.17903646 C165.395083,1.07611979 165.513832,1.02466146 165.64718,1.02466146 L166.452139,1.02466146 C166.572834,1.02466146 166.682822,1.07611979 166.78405,1.17903646 C166.883331,1.28096354 166.934919,1.40763021 166.934919,1.55705729 L166.934919,3.00877604 L171.882444,3.00877604 C171.976859,3.00877604 172.050833,3.03549479 172.104367,3.09190104 C172.157901,3.14632813 172.184182,3.20570313 172.184182,3.27596354 L172.184182,3.56096354 C172.184182,3.64210938 172.154981,3.71138021 172.093661,3.76580729 C172.03526,3.82023438 171.970045,3.84794271 171.902884,3.84794271 L166.934919,3.84794271 L166.934919,5.23830729 C166.934919,5.38674479 166.888198,5.51044271 166.793784,5.60544271 C166.700342,5.70143229 166.586461,5.74992188 166.452139,5.74992188 L165.64718,5.74992188 C165.513832,5.74992188 165.395083,5.70143229 165.295802,5.60544271 C165.194574,5.51044271 165.14396,5.38674479 165.14396,5.23830729 L165.14396,3.84794271 L161.001393,3.84794271 L161.001393,5.11658854 C161.001393,5.26502604 160.950779,5.38674479 160.850524,5.48273438 C160.749296,5.57872396 160.638334,5.62721354 160.518612,5.62721354 L159.714627,5.62721354 C159.591986,5.62721354 159.482971,5.57872396 159.381742,5.48273438 C159.282461,5.38674479 159.230874,5.26502604 159.230874,5.11658854 L159.230874,3.84794271 L154.564646,3.84794271 C154.37679,3.84794271 154.283348,3.75294271 154.283348,3.56096354 L154.283348,3.27596354 Z" id="Fill-14" fill="#94856F"></path>
            </g>
        </g>
    </g>
</svg>